<?xml version="1.0" encoding="utf-8" ?>
<svg viewBox="0 156.0 519.0975000000001 167.89999999999998" baseProfile="full" height="167.89999999999998" version="1.1" width="519.0975000000001" xmlns="http://www.w3.org/2000/svg" xmlns:ev="http://www.w3.org/2001/xml-events" xmlns:xlink="http://www.w3.org/1999/xlink"><defs><style type="text/css"><![CDATA[
            @import url('https://fonts.googleapis.com/css2?family=Monoton&family=Pacifico&display=swap');
        ]]></style></defs><text fill="#000000" font-family="'Monoton'" font-size="54" font-style="normal" font-weight="400" x="20" y="250"><tspan x="20">A</tspan><tspan x="73.578125">l</tspan><tspan x="108.0625">e</tspan><tspan x="147.078125">x</tspan><tspan x="216.734375">T</tspan><tspan x="251.671875">r</tspan><tspan x="299.578125">a</tspan><tspan x="347.515625">n</tspan></text><text fill="#000000" font-family="'Pacifico'" font-size="13" font-style="normal" font-weight="400" x="20" y="280"><tspan x="20">S</tspan><tspan x="30.015625">i</tspan><tspan x="33.90625">l</tspan><tspan x="39.6875">e</tspan><tspan x="46.03125">n</tspan><tspan x="53.328125">t</tspan><tspan x="64.703125">m</tspan><tspan x="75.21875">i</tspan><tspan x="79.109375">d</tspan><tspan x="86.515625">n</tspan><tspan x="93.8125">i</tspan><tspan x="97.703125">g</tspan><tspan x="104.546875">h</tspan><tspan x="111.921875">t</tspan><tspan x="123.296875">h</tspan><tspan x="130.671875">u</tspan><tspan x="137.65625">m</tspan><tspan x="148.171875">.</tspan><tspan x="157.515625">C</tspan><tspan x="167.4375">o</tspan><tspan x="174.328125">d</tspan><tspan x="181.734375">e</tspan><tspan x="193.078125">r</tspan><tspan x="200.515625">u</tspan><tspan x="207.5">n</tspan><tspan x="214.796875">s</tspan><tspan x="225.921875">—</tspan><tspan x="239.984375">b</tspan><tspan x="247.15625">u</tspan><tspan x="254.140625">g</tspan><tspan x="265.984375">h</tspan><tspan x="273.359375">i</tspan><tspan x="277.25">d</tspan><tspan x="284.65625">e</tspan><tspan x="291.0">s</tspan><tspan x="302.125">i</tspan><tspan x="306.015625">n</tspan><tspan x="318.3125">p</tspan><tspan x="325.25">l</tspan><tspan x="331.03125">a</tspan><tspan x="337.984375">i</tspan><tspan x="341.875">n</tspan><tspan x="354.171875">s</tspan><tspan x="360.296875">i</tspan><tspan x="364.1875">g</tspan><tspan x="371.03125">h</tspan><tspan x="378.40625">t</tspan><tspan x="384.78125">.</tspan></text></svg>