<?xml version="1.0" encoding="utf-8" ?>
<svg baseProfile="full" version="1.1" xmlns="http://www.w3.org/2000/svg" xmlns:ev="http://www.w3.org/2001/xml-events" xmlns:xlink="http://www.w3.org/1999/xlink"><defs><style type="text/css"><![CDATA[
            @import url('https://fonts.googleapis.com/css2?family=Meow+Script&family=Audiowide&display=swap');
        ]]></style></defs><text fill="#000000" font-family="'Meow Script'" font-size="72" font-style="normal" font-weight="400" x="230" y="250"><tspan x="230">A</tspan><tspan x="291.9375">l</tspan><tspan x="325.15625">e</tspan><tspan x="359.59375">x</tspan><tspan x="431.625">T</tspan><tspan x="506.890625">r</tspan><tspan x="544.78125">a</tspan><tspan x="583.828125">n</tspan></text><text fill="#555555" font-family="'Audiowide'" font-size="15" font-style="normal" font-weight="400" x="200" y="330"><tspan x="200">S</tspan><tspan x="211.671875">i</tspan><tspan x="215.421875">l</tspan><tspan x="220.125">e</tspan><tspan x="229.921875">n</tspan><tspan x="240.359375">t</tspan><tspan x="248.8125">m</tspan><tspan x="261.921875">i</tspan><tspan x="265.671875">d</tspan><tspan x="276.171875">n</tspan><tspan x="286.609375">i</tspan><tspan x="290.359375">g</tspan><tspan x="300.71875">h</tspan><tspan x="311.265625">t</tspan><tspan x="319.71875">h</tspan><tspan x="330.265625">u</tspan><tspan x="340.703125">m</tspan><tspan x="353.8125">.</tspan><tspan x="356.890625">C</tspan><tspan x="368.09375">o</tspan><tspan x="378.328125">d</tspan><tspan x="388.828125">e</tspan><tspan x="398.625">r</tspan><tspan x="406.8125">u</tspan><tspan x="417.25">n</tspan><tspan x="427.6875">s</tspan><tspan x="436.671875">—</tspan><tspan x="450.375">b</tspan><tspan x="460.734375">u</tspan><tspan x="471.171875">g</tspan><tspan x="481.53125">h</tspan><tspan x="492.078125">i</tspan><tspan x="495.828125">d</tspan><tspan x="506.328125">e</tspan><tspan x="516.125">s</tspan><tspan x="525.109375">i</tspan><tspan x="528.859375">n</tspan><tspan x="539.296875">p</tspan><tspan x="549.65625">l</tspan><tspan x="554.359375">a</tspan><tspan x="564.15625">i</tspan><tspan x="567.90625">n</tspan><tspan x="578.34375">s</tspan><tspan x="587.328125">i</tspan><tspan x="591.078125">g</tspan><tspan x="601.4375">h</tspan><tspan x="611.984375">t</tspan><tspan x="620.4375">.</tspan></text></svg>
